<svg width="100" height="49" viewBox="0 0 100 49" fill="none" xmlns="http://www.w3.org/2000/svg">
<g clip-path="url(#clip0_759_596)">
<path d="M58.5524 45.1245C63.3685 45.1245 58.4072 35.1615 58.4072 29.7625C58.4072 22.9678 73.0346 17.7229 73.0346 11.5785C73.0346 8.90963 70.5847 7.2004 70.5847 7.2004C70.5847 7.2004 71.4985 8.76078 71.4985 10.7192C71.4985 16.5447 56.1534 21.608 56.1534 29.2631C56.1534 31.1455 56.763 33.7447 56.763 33.7447C53.6452 33.7447 51.0469 30.6197 51.0469 26.6681C51.0469 19.1872 68.3033 15.3602 68.3033 9.68032C68.3033 8.33215 67.4107 7.21518 67.4107 7.21518C67.4107 7.21518 68.8419 13.8241 54.6979 15.3042C54.6979 15.3042 54.2124 14.0194 54.2124 12.2626C54.2124 11.1246 56.1767 10.8575 56.1767 10.8575C56.1767 10.8575 52.6042 9.06483 52.6042 3.3702C52.6042 3.3702 60.4002 0.569336 64.0321 0.569336C74.1731 0.569336 81.2165 7.48862 81.2165 11.0612C81.2165 13.5063 76.1693 11.6925 76.1693 14.6085C76.1693 17.1401 81.4529 22.4526 81.4529 25.4361C81.4529 26.0674 81.0882 26.723 80.4363 26.723C79.4079 26.723 76.8245 24.5905 73.1968 24.5905C66.2753 24.5905 64.0883 31.5498 64.0883 48.5693H51.0861V41.8781C51.0861 41.8781 55.5767 45.1255 58.5514 45.1255L58.5524 45.1245Z" fill="#1C1C1A"/>
<path d="M89.1653 19.4812C87.6684 19.4812 86.673 20.7206 86.673 21.8566C86.673 26.0573 97.537 32.1753 97.537 42.7686C97.537 45.9632 94.7425 48.5688 91.2791 48.5688C82.9096 48.5688 78.4815 37.4244 75.8874 37.4244C73.5531 37.4244 82.1633 48.5688 82.1633 48.5688H66.1758L66.2935 41.8775C66.2935 41.8775 70.5254 45.125 74.1976 45.125C78.7953 45.125 68.6236 37.7338 68.6236 32.4076C68.6236 28.8835 70.8286 26.9484 73.7651 26.9484C79.531 26.9484 83.9909 35.9422 87.5497 35.9422C88.526 35.9422 89.69 35.0448 89.69 33.6945C89.69 28.1635 81.8972 24.1623 81.8972 18.626C81.8972 16.9654 82.9584 15.2044 85.5323 15.2044C88.9077 15.2044 89.7865 13.492 89.7865 11.4534C89.7865 9.41476 88.6161 7.17871 88.6161 7.17871H99.443C99.443 7.17871 102.351 20.4926 94.91 20.4926C93.1704 20.4926 91.0512 19.4822 89.1674 19.4822L89.1653 19.4812Z" fill="#1C1C1A"/>
<path d="M41.4473 45.1245C36.6313 45.1245 41.5926 35.1615 41.5926 29.7625C41.5926 22.9678 26.9652 17.7229 26.9652 11.5785C26.9652 8.90963 29.4151 7.2004 29.4151 7.2004C29.4151 7.2004 28.5013 8.76078 28.5013 10.7192C28.5013 16.5447 43.8464 21.608 43.8464 29.2631C43.8464 31.1455 43.2368 33.7447 43.2368 33.7447C46.3546 33.7447 48.9529 30.6197 48.9529 26.6681C48.9529 19.1872 31.6965 15.3602 31.6965 9.68032C31.6965 8.33215 32.5891 7.21518 32.5891 7.21518C32.5891 7.21518 31.1579 13.8241 45.3019 15.3042C45.3019 15.3042 45.7874 14.0194 45.7874 12.2626C45.7874 11.1246 43.823 10.8575 43.823 10.8575C43.823 10.8575 47.3956 9.06483 47.3956 3.3702C47.3956 3.3702 39.5996 0.569336 35.9676 0.569336C25.8266 0.569336 18.7833 7.48862 18.7833 11.0612C18.7833 13.5063 23.8305 11.6925 23.8305 14.6085C23.8305 17.1401 18.5469 22.4526 18.5469 25.4361C18.5469 26.0674 18.9116 26.723 19.5635 26.723C20.5918 26.723 23.1753 24.5905 26.803 24.5905C33.7244 24.5905 35.9114 31.5498 35.9114 48.5693H48.9137V41.8781C48.9137 41.8781 44.4231 45.1255 41.4484 45.1255L41.4473 45.1245Z" fill="#1C1C1A"/>
<path d="M10.8353 19.4812C12.3322 19.4812 13.3276 20.7206 13.3276 21.8566C13.3276 26.0573 2.46361 32.1753 2.46361 42.7686C2.46361 45.9632 5.25805 48.5688 8.72143 48.5688C17.091 48.5688 21.5191 37.4244 24.1131 37.4244C26.4475 37.4244 17.8373 48.5688 17.8373 48.5688H33.8248L33.7071 41.8775C33.7071 41.8775 29.4752 45.125 25.8029 45.125C21.2053 45.125 31.377 37.7338 31.377 32.4076C31.377 28.8835 29.172 26.9484 26.2355 26.9484C20.4695 26.9484 16.0097 35.9422 12.4509 35.9422C11.4745 35.9422 10.3105 35.0448 10.3105 33.6945C10.3105 28.1635 18.1034 24.1623 18.1034 18.626C18.1034 16.9654 17.0422 15.2044 14.4683 15.2044C11.0929 15.2044 10.2141 13.492 10.2141 11.4534C10.2141 9.41476 11.3844 7.17871 11.3844 7.17871H0.559655C0.559655 7.17871 -2.34822 20.4926 5.09268 20.4926C6.83231 20.4926 8.95147 19.4822 10.8353 19.4822V19.4812Z" fill="#1C1C1A"/>
</g>
<defs>
<clipPath id="clip0_759_596">
<rect width="100" height="48" fill="white" transform="translate(0 0.569336)"/>
</clipPath>
</defs>
</svg>
